<svg viewBox="0 0 1584 396" xmlns="http://www.w3.org/2000/svg">
  <defs>
    <linearGradient id="g" x1="0%" y1="0%" x2="100%" y2="100%">
      <stop offset="0%" style="stop-color:#F5C842"></stop>
      <stop offset="50%" style="stop-color:#D4A017"></stop>
      <stop offset="100%" style="stop-color:#A07810"></stop>
    </linearGradient>
    <linearGradient id="bg" x1="0%" y1="0%" x2="100%" y2="100%">
      <stop offset="0%" style="stop-color:#0A0A0A"></stop>
      <stop offset="60%" style="stop-color:#0f0a00"></stop>
      <stop offset="100%" style="stop-color:#1a1000"></stop>
    </linearGradient>
    <radialGradient id="glow-left" cx="20%" cy="50%" r="40%">
      <stop offset="0%" style="stop-color:rgba(212,160,23,0.13)"></stop>
      <stop offset="100%" style="stop-color:rgba(0,0,0,0)"></stop>
    </radialGradient>
    <radialGradient id="glow-right" cx="80%" cy="50%" r="35%">
      <stop offset="0%" style="stop-color:rgba(212,160,23,0.06)"></stop>
      <stop offset="100%" style="stop-color:rgba(0,0,0,0)"></stop>
    </radialGradient>
    <filter id="glow">
      <feGaussianBlur stdDeviation="3" result="blur"></feGaussianBlur>
      <feMerge><feMergeNode in="blur"></feMergeNode><feMergeNode in="SourceGraphic"></feMergeNode></feMerge>
    </filter>
    <filter id="glow2">
      <feGaussianBlur stdDeviation="5" result="blur"></feGaussianBlur>
      <feMerge><feMergeNode in="blur"></feMergeNode><feMergeNode in="SourceGraphic"></feMergeNode></feMerge>
    </filter>
  </defs>

  
  <rect width="1584" height="396" fill="url(#bg)"></rect>
  <rect width="1584" height="396" fill="url(#glow-left)"></rect>
  <rect width="1584" height="396" fill="url(#glow-right)"></rect>

  
  <line x1="0" y1="132" x2="1584" y2="132" stroke="#D4A017" stroke-width="0.4" opacity="0.07"></line>
  <line x1="0" y1="264" x2="1584" y2="264" stroke="#D4A017" stroke-width="0.4" opacity="0.07"></line>
  <line x1="396" y1="0" x2="396" y2="396" stroke="#D4A017" stroke-width="0.4" opacity="0.07"></line>
  <line x1="792" y1="0" x2="792" y2="396" stroke="#D4A017" stroke-width="0.4" opacity="0.07"></line>
  <line x1="1188" y1="0" x2="1188" y2="396" stroke="#D4A017" stroke-width="0.4" opacity="0.07"></line>

  
  <line x1="0" y1="396" x2="200" y2="0" stroke="url(#g)" stroke-width="1" opacity="0.08"></line>
  <line x1="60" y1="396" x2="260" y2="0" stroke="url(#g)" stroke-width="0.6" opacity="0.05"></line>

  
  <line x1="1584" y1="0" x2="1384" y2="396" stroke="url(#g)" stroke-width="1" opacity="0.08"></line>
  <line x1="1524" y1="0" x2="1324" y2="396" stroke="url(#g)" stroke-width="0.6" opacity="0.05"></line>

  
  <circle cx="168" cy="208" r="58" fill="#111" stroke="url(#g)" stroke-width="2.2"></circle>
  <circle cx="210" cy="188" r="51" fill="#111" stroke="url(#g)" stroke-width="2.2"></circle>
  <circle cx="190" cy="158" r="47" fill="#111" stroke="url(#g)" stroke-width="2.2"></circle>
  <circle cx="146" cy="166" r="44" fill="#111" stroke="url(#g)" stroke-width="2.2"></circle>
  <ellipse cx="178" cy="187" rx="64" ry="52" fill="#0d0d0d"></ellipse>
  
  <ellipse cx="248" cy="145" rx="35" ry="33" fill="#111" stroke="url(#g)" stroke-width="2.2"></ellipse>
  
  <ellipse cx="226" cy="116" rx="11" ry="19" fill="#0f0f0f" stroke="url(#g)" stroke-width="2" transform="rotate(-20,226,116)"></ellipse>
  
  <circle cx="260" cy="138" r="7" fill="url(#g)" filter="url(#glow)"></circle>
  <circle cx="260" cy="138" r="3" fill="#0A0A0A"></circle>
  
  <path d="M 228,110 A 42,42 0 0,1 286,145" fill="none" stroke="url(#g)" stroke-width="2" stroke-dasharray="5,4" opacity="0.7" filter="url(#glow)"></path>
  <circle cx="286" cy="145" r="5.5" fill="url(#g)" filter="url(#glow2)"></circle>
  
  <rect x="136" y="258" width="13" height="40" rx="6.5" fill="url(#g)" opacity="0.75"></rect>
  <rect x="156" y="263" width="13" height="35" rx="6.5" fill="url(#g)" opacity="0.75"></rect>
  <rect x="184" y="258" width="13" height="40" rx="6.5" fill="url(#g)" opacity="0.75"></rect>
  <rect x="204" y="263" width="13" height="35" rx="6.5" fill="url(#g)" opacity="0.75"></rect>
  
  <circle cx="154" cy="183" r="5.5" fill="url(#g)" filter="url(#glow)"></circle>
  <circle cx="182" cy="170" r="5.5" fill="url(#g)" filter="url(#glow)"></circle>
  <circle cx="208" cy="192" r="5.5" fill="url(#g)" filter="url(#glow)"></circle>
  <circle cx="172" cy="206" r="5.5" fill="url(#g)" filter="url(#glow)"></circle>
  <line x1="154" y1="183" x2="182" y2="170" stroke="url(#g)" stroke-width="1.2" opacity="0.5"></line>
  <line x1="182" y1="170" x2="208" y2="192" stroke="url(#g)" stroke-width="1.2" opacity="0.5"></line>
  <line x1="154" y1="183" x2="172" y2="206" stroke="url(#g)" stroke-width="1.2" opacity="0.5"></line>
  <line x1="208" y1="192" x2="172" y2="206" stroke="url(#g)" stroke-width="1.2" opacity="0.5"></line>

  
  <line x1="360" y1="60" x2="360" y2="336" stroke="url(#g)" stroke-width="1" opacity="0.25"></line>

  
  <text x="410" y="178" font-family="&#39;Inter&#39;,&#39;Arial Black&#39;,sans-serif" font-weight="900" font-size="96" letter-spacing="8" fill="url(#g)">BLACK</text>
  <text x="410" y="272" font-family="&#39;Inter&#39;,&#39;Arial Black&#39;,sans-serif" font-weight="900" font-size="96" letter-spacing="8" fill="#F0F0F0">SHEEP</text>
  <rect x="410" y="284" width="700" height="1.5" fill="url(#g)" opacity="0.3"></rect>
  <text x="412" y="314" font-family="&#39;Inter&#39;,Arial,sans-serif" font-weight="400" font-size="16" letter-spacing="8" fill="#666">INTELLIGENT AUTOMATION</text>

  
  <line x1="1060" y1="60" x2="1060" y2="336" stroke="url(#g)" stroke-width="1" opacity="0.15"></line>

  
  <g transform="translate(1090, 80)">
    
    <rect x="0" y="0" width="200" height="36" rx="18" fill="rgba(212,160,23,0.1)" stroke="url(#g)" stroke-width="1.2"></rect>
    <text x="100" y="23" font-family="&#39;Inter&#39;,Arial,sans-serif" font-size="13" font-weight="600" letter-spacing="2" fill="#D4A017" text-anchor="middle">🤖  ATENCIÓN CON IA</text>
    
    <rect x="0" y="52" width="200" height="36" rx="18" fill="rgba(212,160,23,0.07)" stroke="rgba(212,160,23,0.25)" stroke-width="1"></rect>
    <text x="100" y="75" font-family="&#39;Inter&#39;,Arial,sans-serif" font-size="13" font-weight="600" letter-spacing="2" fill="#A07810" text-anchor="middle">📅  AGENDA AUTOMÁTICA</text>
    
    <rect x="0" y="104" width="200" height="36" rx="18" fill="rgba(212,160,23,0.07)" stroke="rgba(212,160,23,0.25)" stroke-width="1"></rect>
    <text x="100" y="127" font-family="&#39;Inter&#39;,Arial,sans-serif" font-size="13" font-weight="600" letter-spacing="2" fill="#A07810" text-anchor="middle">🎯  GENERACIÓN LEADS</text>
    
    <rect x="0" y="156" width="200" height="36" rx="18" fill="rgba(212,160,23,0.07)" stroke="rgba(212,160,23,0.25)" stroke-width="1"></rect>
    <text x="100" y="179" font-family="&#39;Inter&#39;,Arial,sans-serif" font-size="13" font-weight="600" letter-spacing="2" fill="#A07810" text-anchor="middle">📲  WHATSAPP BOT</text>
    
    <rect x="0" y="208" width="200" height="36" rx="18" fill="rgba(212,160,23,0.07)" stroke="rgba(212,160,23,0.25)" stroke-width="1"></rect>
    <text x="100" y="231" font-family="&#39;Inter&#39;,Arial,sans-serif" font-size="13" font-weight="600" letter-spacing="2" fill="#A07810" text-anchor="middle">🔍  PROSPECTACIÓN</text>
  </g>

  
  <text x="1550" y="376" font-family="&#39;Inter&#39;,Arial,sans-serif" font-size="13" font-weight="500" letter-spacing="3" fill="#444" text-anchor="end">black-shep.net</text>

  
  <rect x="0" y="0" width="1584" height="3" fill="url(#g)" opacity="0.6"></rect>
  
  <rect x="0" y="393" width="1584" height="3" fill="url(#g)" opacity="0.3"></rect>
</svg>