<svg viewBox="0 0 500 500" xmlns="http://www.w3.org/2000/svg">
  <defs>
    <linearGradient id="g" x1="0%" y1="0%" x2="100%" y2="100%">
      <stop offset="0%" style="stop-color:#F5C842"></stop>
      <stop offset="50%" style="stop-color:#D4A017"></stop>
      <stop offset="100%" style="stop-color:#A07810"></stop>
    </linearGradient>
    <linearGradient id="ig-bg" x1="0%" y1="100%" x2="100%" y2="0%">
      <stop offset="0%" style="stop-color:#0A0A0A"></stop>
      <stop offset="60%" style="stop-color:#100800"></stop>
      <stop offset="100%" style="stop-color:#1a0f00"></stop>
    </linearGradient>
    <filter id="glow">
      <feGaussianBlur stdDeviation="3.5" result="blur"></feGaussianBlur>
      <feMerge><feMergeNode in="blur"></feMergeNode><feMergeNode in="SourceGraphic"></feMergeNode></feMerge>
    </filter>
    <clipPath id="circle-clip">
      <circle cx="250" cy="250" r="245"></circle>
    </clipPath>
  </defs>

  
  <rect width="500" height="500" fill="url(#ig-bg)"></rect>

  
  <radialGradient id="warm" cx="50%" cy="48%" r="45%">
    <stop offset="0%" style="stop-color:rgba(212,160,23,0.1)"></stop>
    <stop offset="100%" style="stop-color:rgba(0,0,0,0)"></stop>
  </radialGradient>
  <rect width="500" height="500" fill="url(#warm)"></rect>

  
  <line x1="0" y1="0" x2="80" y2="0" stroke="url(#g)" stroke-width="1.5" opacity="0.3"></line>
  <line x1="0" y1="0" x2="0" y2="80" stroke="url(#g)" stroke-width="1.5" opacity="0.3"></line>
  <line x1="500" y1="500" x2="420" y2="500" stroke="url(#g)" stroke-width="1.5" opacity="0.3"></line>
  <line x1="500" y1="500" x2="500" y2="420" stroke="url(#g)" stroke-width="1.5" opacity="0.3"></line>

  
  
  <circle cx="220" cy="258" r="66" fill="#111" stroke="url(#g)" stroke-width="3"></circle>
  <circle cx="268" cy="238" r="58" fill="#111" stroke="url(#g)" stroke-width="3"></circle>
  <circle cx="246" cy="206" r="54" fill="#111" stroke="url(#g)" stroke-width="3"></circle>
  <circle cx="198" cy="216" r="50" fill="#111" stroke="url(#g)" stroke-width="3"></circle>
  
  <ellipse cx="234" cy="235" rx="72" ry="60" fill="#0d0d0d"></ellipse>

  
  <ellipse cx="300" cy="192" rx="40" ry="38" fill="#111" stroke="url(#g)" stroke-width="3"></ellipse>

  
  <ellipse cx="276" cy="160" rx="13" ry="22" fill="#0f0f0f" stroke="url(#g)" stroke-width="2.5" transform="rotate(-20,276,160)"></ellipse>

  
  <circle cx="313" cy="184" r="8" fill="url(#g)" filter="url(#glow)"></circle>
  <circle cx="313" cy="184" r="3.5" fill="#0A0A0A"></circle>

  
  <path d="M 280,154 A 48,48 0 0,1 344,192" fill="none" stroke="url(#g)" stroke-width="2.5" stroke-dasharray="6,5" opacity="0.75" filter="url(#glow)"></path>
  <circle cx="344" cy="192" r="6.5" fill="url(#g)" filter="url(#glow)"></circle>

  
  <rect x="188" y="314" width="15" height="46" rx="7.5" fill="url(#g)" opacity="0.8"></rect>
  <rect x="210" y="320" width="15" height="40" rx="7.5" fill="url(#g)" opacity="0.8"></rect>
  <rect x="244" y="314" width="15" height="46" rx="7.5" fill="url(#g)" opacity="0.8"></rect>
  <rect x="266" y="320" width="15" height="40" rx="7.5" fill="url(#g)" opacity="0.8"></rect>

  
  <circle cx="208" cy="232" r="6.5" fill="url(#g)" filter="url(#glow)"></circle>
  <circle cx="238" cy="218" r="6.5" fill="url(#g)" filter="url(#glow)"></circle>
  <circle cx="266" cy="242" r="6.5" fill="url(#g)" filter="url(#glow)"></circle>
  <circle cx="228" cy="260" r="6.5" fill="url(#g)" filter="url(#glow)"></circle>

  
  <line x1="208" y1="232" x2="238" y2="218" stroke="url(#g)" stroke-width="1.5" opacity="0.5"></line>
  <line x1="238" y1="218" x2="266" y2="242" stroke="url(#g)" stroke-width="1.5" opacity="0.5"></line>
  <line x1="208" y1="232" x2="228" y2="260" stroke="url(#g)" stroke-width="1.5" opacity="0.5"></line>
  <line x1="266" y1="242" x2="228" y2="260" stroke="url(#g)" stroke-width="1.5" opacity="0.5"></line>

  
  <text x="38" y="62" font-family="&#39;Inter&#39;,&#39;Arial Black&#39;,sans-serif" font-weight="900" font-size="22" letter-spacing="3" fill="url(#g)" opacity="0.5">BS</text>

  
  <text x="250" y="420" font-family="&#39;Inter&#39;,Arial,sans-serif" font-weight="700" font-size="18" letter-spacing="8" fill="url(#g)" text-anchor="middle" opacity="0.9">BLACKSHEEP</text>
  <text x="250" y="444" font-family="&#39;Inter&#39;,Arial,sans-serif" font-weight="400" font-size="11" letter-spacing="5" fill="#666" text-anchor="middle">INTELLIGENT AUTOMATION</text>
  <line x1="120" y1="428" x2="172" y2="428" stroke="url(#g)" stroke-width="1" opacity="0.25"></line>
  <line x1="328" y1="428" x2="380" y2="428" stroke="url(#g)" stroke-width="1" opacity="0.25"></line>
</svg>